<svg width="92" height="43" viewBox="0 0 92 43" fill="none" xmlns="http://www.w3.org/2000/svg">
<path d="M49.5496 28.416C49.2472 29.6928 48.6256 30.5496 47.6848 30.9864C46.744 31.4232 45.736 31.524 44.6608 31.2888C43.2832 30.9528 42.1072 30.432 41.1328 29.7264C40.1584 28.9872 39.2848 28.1472 38.512 27.2064C37.4704 25.9296 36.5296 24.5688 35.6896 23.124C34.8832 21.6792 33.9424 20.3856 32.8672 19.2432C32.5312 19.6464 32.212 20.1504 31.9096 20.7552C31.6072 21.36 31.288 21.9144 30.952 22.4184C30.616 22.8888 30.2128 23.1912 29.7424 23.3256C29.7088 23.4264 29.6584 23.5944 29.5912 23.8296C29.524 24.0648 29.356 24.2328 29.0872 24.3336C29.524 24.6696 29.9776 24.9552 30.4479 25.1904C30.952 25.4256 31.4392 25.6776 31.9096 25.9464C32.6824 26.3832 33.3544 26.9376 33.9256 27.6096C34.5304 28.2816 34.8496 29.256 34.8831 30.5328C34.0768 30.9024 33.3544 31.0032 32.716 30.8352C32.1112 30.6336 31.5736 30.264 31.1032 29.7264C30.6328 29.1888 30.2128 28.6176 29.8432 28.0128C29.608 27.5424 29.3728 27.1056 29.1376 26.7024C28.9024 26.2656 28.684 25.896 28.4824 25.5936C27.9112 26.2656 27.34 26.9712 26.7688 27.7104C26.1976 28.416 25.5592 29.0376 24.8536 29.5752C24.5176 29.4744 24.232 29.508 23.9968 29.676C23.7616 29.8104 23.5264 29.9784 23.2912 30.18C23.1568 30.3144 22.9888 30.4488 22.7872 30.5832C22.6192 30.684 22.4344 30.7848 22.2328 30.8856C22.132 30.9192 22.0648 30.8688 22.0312 30.7344C21.9976 30.6 21.9472 30.5328 21.88 30.5328C21.7456 30.5328 21.6112 30.5832 21.4768 30.684C21.376 30.7512 21.2752 30.8352 21.1744 30.936C21.0064 31.0704 20.8216 31.2048 20.62 31.3392C20.452 31.44 20.2504 31.4568 20.0152 31.3896C20.0152 31.5912 20.032 31.7928 20.0656 31.9944C20.0992 32.1624 20.1496 32.3304 20.2168 32.4984C20.284 32.7672 20.3344 33.0528 20.368 33.3552C20.4016 33.6576 20.4016 33.9936 20.368 34.3632C19.7296 34.7328 19.1416 34.8 18.604 34.5648C18.1 34.296 17.6632 33.876 17.2936 33.3048C16.7896 32.532 16.3864 31.5912 16.084 30.4824C15.7816 29.3736 15.5296 28.3656 15.328 27.4584C16.0336 27.3576 16.7224 27.5928 17.3944 28.164C18.1 28.7352 18.6544 29.3736 19.0576 30.0792C20.1328 29.5416 21.04 28.8696 21.7792 28.0632C22.552 27.2568 23.224 26.4336 23.7952 25.5936C24.4 24.7536 24.9712 24.048 25.5088 23.4768C26.2816 22.536 27.1384 21.444 28.0792 20.2008C29.0536 18.924 29.86 17.6136 30.4984 16.2696C29.9608 15.396 29.3392 14.5896 28.6336 13.8504C27.9616 13.0776 27.3232 12.288 26.7184 11.4816C26.3488 11.6832 25.9792 12.0696 25.6096 12.6408C25.24 13.212 24.8536 13.8504 24.4504 14.556C24.0808 15.2616 23.6272 15.9168 23.0896 16.5216C22.5856 17.0928 21.9976 17.5128 21.3256 17.7816C21.2584 17.5464 21.0904 17.3952 20.8216 17.328C20.5864 17.2608 20.3512 17.1768 20.116 17.076C19.8808 16.9416 19.7464 16.7232 19.7128 16.4208C19.8808 16.4208 20.0488 16.4208 20.2168 16.4208C20.4184 16.3872 20.5696 16.3368 20.6704 16.2696L20.2168 16.068C20.5528 15.9 20.7712 15.6816 20.872 15.4128C21.0064 15.144 21.1408 14.8752 21.2752 14.6064C21.4096 14.3376 21.6616 14.1192 22.0312 13.9512C21.964 13.7832 21.964 13.6488 22.0312 13.548C22.0984 13.4136 22.1992 13.296 22.3336 13.1952C22.468 13.0608 22.5856 12.9096 22.6864 12.7416C22.7872 12.5736 22.7872 12.3216 22.6864 11.9856C23.224 11.616 23.644 11.0448 23.9464 10.272C24.2488 9.4992 24.5344 8.676 24.8032 7.8024C25.072 6.9288 25.408 6.1728 25.8111 5.5344C25.7104 5.4336 25.6096 5.2656 25.5088 5.0304C25.408 4.7616 25.4584 4.56 25.66 4.4256C25.4584 3.6528 25.2232 3.0312 24.9544 2.5608C24.6856 2.0568 24.4504 1.5192 24.2488 0.947999C24.9544 0.947999 25.7272 1.0152 26.5672 1.1496C27.4072 1.2504 28.1632 1.5024 28.8351 1.9056C29.5408 2.2752 29.9944 2.8968 30.196 3.7704C30.8344 3.636 31.4896 3.552 32.1616 3.5184C32.8672 3.4848 33.5056 3.384 34.0768 3.216C34.648 3.0144 35.068 2.6616 35.3367 2.1576C36.6136 2.1912 37.8736 2.4432 39.1168 2.9136C40.36 3.3504 41.452 3.8544 42.3928 4.4256C42.46 4.8624 42.4768 5.2824 42.4432 5.6856C42.4432 6.0888 42.2584 6.2736 41.8888 6.24C40.9144 6.3744 40.108 6.6768 39.4696 7.1472C38.8312 7.584 38.2768 8.1384 37.8064 8.8104C37.1344 9.8184 36.5968 10.9776 36.1936 12.288C35.7904 13.5984 35.3032 14.8584 34.732 16.068C35.7064 17.2104 36.7312 18.2184 37.8064 19.092C38.9152 19.9656 40.0576 20.7888 41.2336 21.5616C42.376 22.3008 43.4176 22.9392 44.3584 23.4768C45.3328 23.9808 46.3912 24.6696 47.5336 25.5432C47.9368 25.8456 48.3232 26.2992 48.6928 26.904C49.0624 27.4752 49.348 27.9792 49.5496 28.416ZM20.368 9.7176C20.4016 9.7848 20.368 9.852 20.2672 9.9192C20.1664 9.9864 20.1496 10.0872 20.2168 10.2216C19.444 10.7256 18.8056 11.364 18.3016 12.1368C17.7976 12.9096 17.2936 13.6824 16.7896 14.4552C16.2856 15.228 15.6472 15.8832 14.8744 16.4208C15.0088 16.6896 15.0256 16.908 14.9248 17.076C14.824 17.244 14.7064 17.412 14.572 17.58C14.3704 17.7816 14.2528 17.9328 14.2192 18.0336C14.3536 18.2688 14.572 18.4368 14.8744 18.5376C15.1768 18.6384 15.496 18.7056 15.832 18.7392C16.6048 19.008 17.2936 19.4784 17.8984 20.1504C18.5032 20.8224 18.94 21.5448 19.2088 22.3176C19.4104 22.8888 19.5112 23.4768 19.5112 24.0816C19.5112 24.6864 19.3264 25.2576 18.9568 25.7952C18.2848 25.896 17.764 25.8792 17.3944 25.7448C17.0248 25.6104 16.6552 25.3584 16.2856 24.9888C15.1096 25.5264 13.732 25.8792 12.1528 26.0472C10.5736 26.1816 9.07835 26.484 7.66715 26.9544C7.43195 27.0216 7.21355 27.1224 7.01195 27.2568C6.81035 27.3912 6.60875 27.5256 6.40715 27.66C6.13835 27.8616 5.85275 28.0464 5.55035 28.2144C5.24795 28.3824 4.91195 28.4496 4.54235 28.416C4.07195 28.1472 3.68555 27.7776 3.38315 27.3072C3.11435 26.8032 2.86235 26.2992 2.62715 25.7952C2.39195 25.2576 2.05595 24.8208 1.61915 24.4848C2.12315 24.216 2.59355 24.1488 3.03035 24.2832C3.46715 24.4176 3.87035 24.6024 4.23995 24.8376C4.91195 24.636 5.49995 24.3504 6.00395 23.9808C6.54155 23.6112 6.99515 23.1744 7.36475 22.6704C7.93595 21.9648 8.42315 21.192 8.82635 20.352C9.22955 19.4784 9.68315 18.6216 10.1872 17.7816C9.64955 17.1096 8.92715 16.6392 8.01995 16.3704C7.14635 16.068 6.30635 15.7152 5.49995 15.312C5.23115 14.64 4.81115 14.1192 4.23995 13.7496C3.66875 13.38 3.09755 13.0272 2.52635 12.6912C2.82875 12.3888 3.21515 12.2208 3.68555 12.1872C4.18955 12.12 4.69355 12.1368 5.19755 12.2376C5.70155 12.3384 6.07115 12.4896 6.30635 12.6912C6.33995 12.5568 6.40715 12.4224 6.50795 12.288C6.60875 12.1536 6.72635 12.0192 6.86075 11.8848C7.09595 11.6496 7.28075 11.4144 7.41515 11.1792C7.58315 10.944 7.51595 10.7088 7.21355 10.4736C7.24715 10.2384 7.46555 10.1544 7.86875 10.2216C7.93595 9.8184 8.01995 9.432 8.12075 9.0624C8.25515 8.6928 8.38955 8.3232 8.52395 7.9536C8.72555 7.2144 8.91035 6.5256 9.07835 5.8872C9.24635 5.2152 9.24635 4.5936 9.07835 4.0224C8.87675 3.2496 8.30555 2.628 7.36475 2.1576C7.80155 1.6872 8.38955 1.4184 9.12875 1.3512C9.90155 1.2504 10.6744 1.3176 11.4472 1.5528C12.22 1.7544 12.8416 2.0568 13.312 2.46C13.5808 2.9304 13.732 3.2664 13.7656 3.468C13.8328 3.6696 13.8496 3.9216 13.816 4.224C13.816 4.2912 13.816 4.3752 13.816 4.476C13.816 4.5768 13.816 4.6776 13.816 4.7784C12.8752 6.0216 12.0184 7.3824 11.2456 8.8608C10.5064 10.3392 9.78395 11.8176 9.07835 13.296C9.41435 13.8 9.83435 14.22 10.3384 14.556C10.8424 14.8584 11.3632 15.144 11.9008 15.4128L12.2032 15.312C12.3712 14.5056 12.7072 13.716 13.2112 12.9432C13.7488 12.1704 14.236 11.364 14.6728 10.524C14.9752 9.9528 15.1936 9.3648 15.328 8.76C15.496 8.1216 15.496 7.4496 15.328 6.744C15.7312 6.8112 15.9496 6.6936 15.9832 6.3912C16.4872 6.492 17.0752 6.6768 17.7472 6.9456C18.4192 7.1808 19.0072 7.5168 19.5112 7.9536C20.0488 8.3904 20.3344 8.9784 20.368 9.7176ZM7.21355 42.0744C5.97035 41.5704 5.04635 40.7808 4.44155 39.7056C3.87035 38.6304 3.36635 37.4712 2.92955 36.228C2.62715 35.3544 2.30795 34.4976 1.97195 33.6576C1.66955 32.8176 1.23275 32.0616 0.661551 31.3896C1.53515 31.3224 2.49275 31.608 3.53435 32.2464C4.60955 32.8512 5.55035 33.6408 6.35675 34.6152C7.26395 35.724 7.85195 36.9672 8.12075 38.3448C8.42315 39.6888 8.12075 40.932 7.21355 42.0744ZM34.0768 41.2176C33.136 41.016 32.38 40.6128 31.8088 40.008C31.2376 39.4368 30.7672 38.7648 30.3976 37.992C30.028 37.2192 29.6584 36.4464 29.2887 35.6736C28.9863 35.0352 28.6504 34.4472 28.2808 33.9096C27.9448 33.372 27.4912 32.9184 26.92 32.5488C27.8944 32.2464 28.9864 32.2968 30.196 32.7C31.4392 33.1032 32.4808 33.708 33.3208 34.5144C33.8248 35.0184 34.2448 35.724 34.5808 36.6312C34.9168 37.5048 35.068 38.3616 35.0344 39.2016C35.0344 40.0752 34.7152 40.7472 34.0768 41.2176ZM34.0768 5.8872C33.5392 5.9208 33.0184 5.9712 32.5144 6.0384C32.0104 6.1056 31.54 6.1896 31.1032 6.2904C30.5992 6.3576 30.1456 6.4248 29.7424 6.492C29.3392 6.5256 28.9696 6.5424 28.6336 6.5424C28.4992 7.3824 28.2472 8.0544 27.8776 8.5584C27.508 9.0288 27.2896 9.5832 27.2224 10.2216C28.0624 10.7592 28.8688 11.3304 29.6416 11.9352C30.4144 12.5064 31.1704 13.128 31.9096 13.8C32.3128 12.7248 32.7664 11.4984 33.2704 10.1208C33.7744 8.7096 34.0432 7.2984 34.0768 5.8872ZM14.2192 33.6576C14.2192 33.6912 14.236 33.7416 14.2696 33.8088C14.4712 34.6824 14.6056 35.4888 14.6728 36.228C14.74 36.9672 14.4544 37.5888 13.816 38.0928C13.2448 37.8912 12.7744 37.572 12.4048 37.1352C12.0352 36.6984 11.6992 36.228 11.3968 35.724C11.0944 35.22 10.7416 34.7664 10.3384 34.3632C10.3384 33.1872 10.1704 32.196 9.83435 31.3896C9.53195 30.5832 9.24635 29.7096 8.97755 28.7688C9.54875 28.9032 10.204 29.2224 10.9432 29.7264C11.716 30.2304 12.4048 30.8352 13.0096 31.5408C13.648 32.2128 14.0512 32.9184 14.2192 33.6576ZM15.328 22.1664C15.4288 21.2256 15.3448 20.4864 15.076 19.9488C14.8408 19.4112 14.5552 18.9072 14.2192 18.4368C14.152 18.336 14.1016 18.2688 14.068 18.2352C13.2616 19.6464 12.1864 21.1248 10.8424 22.6704C10.7752 22.6032 10.8424 22.4184 11.044 22.116C11.2456 21.8136 11.2792 21.6288 11.1448 21.5616C11.0776 21.7296 10.96 21.9144 10.792 22.116C10.624 22.3176 10.4728 22.5192 10.3384 22.7208C10.1704 22.9224 10.0192 23.1072 9.88475 23.2752C9.75035 23.4432 9.69995 23.5608 9.73355 23.628C10.4392 23.4936 11.1112 23.3424 11.7496 23.1744C12.4216 22.9728 13.1608 22.8552 13.9672 22.8216C14.0344 22.7544 14.1352 22.6536 14.2696 22.5192C14.404 22.3512 14.5384 22.2336 14.6728 22.1664C14.8072 22.0656 15.0256 22.0656 15.328 22.1664ZM91.4319 8.256C90.1215 8.2224 88.9791 8.424 88.0047 8.8608C87.0639 9.264 86.2071 9.8016 85.4343 10.4736C84.6615 11.1456 83.9055 11.8512 83.1663 12.5904C82.4943 13.2624 81.7887 13.9344 81.0495 14.6064C80.3439 15.2448 79.5375 15.7656 78.6303 16.1688C78.6975 16.4376 78.7983 16.6896 78.9327 16.9248C79.0671 17.16 79.1847 17.412 79.2855 17.6808C79.5879 19.764 79.7559 21.7632 79.7895 23.6784C79.8231 25.56 79.8399 27.3408 79.8399 29.0208C79.8399 29.3232 79.8399 29.6088 79.8399 29.8776C79.8399 30.1464 79.8399 30.4152 79.8399 30.684C79.8399 30.852 79.8399 31.0368 79.8399 31.2384C79.8399 31.4064 79.8399 31.5744 79.8399 31.7424C79.8735 33.2208 79.8063 34.5984 79.6383 35.8752C79.4703 37.152 78.8487 38.3952 77.7735 39.6048C77.1687 39.84 76.6647 40.1592 76.2615 40.5624C75.8583 40.9992 75.4215 41.4024 74.9511 41.772C73.9095 41.6376 72.7503 41.3184 71.4735 40.8144C70.2303 40.344 68.9871 39.756 67.7439 39.0504C66.5343 38.3784 65.4423 37.6728 64.4679 36.9336C64.5687 36.4632 64.5183 36.0096 64.3167 35.5728C64.1487 35.136 63.9639 34.7832 63.7623 34.5144C63.5607 34.212 63.4599 34.0608 63.4599 34.0608C64.6695 34.8336 66.1815 35.4216 67.9959 35.8248C69.8439 36.1944 71.7087 36.2784 73.5903 36.0768C74.4639 35.3376 75.1023 34.1112 75.5055 32.3976C75.9423 30.684 76.1607 28.8528 76.1607 26.904C76.1607 25.2912 76.0263 23.7456 75.7576 22.2672C75.4887 20.7552 75.1023 19.4952 74.5983 18.4872C74.0943 17.4456 73.4727 16.8408 72.7335 16.6728C73.0359 15.9672 72.9183 15.312 72.3807 14.7072C71.8767 14.1024 71.3727 13.5816 70.8687 13.1448C70.3311 12.6744 69.8103 12.2208 69.3063 11.784C68.8023 11.3472 68.4831 10.9104 68.3487 10.4736C68.9535 10.5072 69.6255 10.7088 70.3647 11.0784C71.1039 11.448 71.7759 11.8008 72.3807 12.1368C73.5231 12.7416 74.5479 13.4136 75.4551 14.1528C76.8327 13.1784 78.0087 11.9856 78.9831 10.5744C79.9575 9.1296 80.7472 7.9032 81.352 6.8952C79.7727 6.7944 78.1935 6.8448 76.6143 7.0464C75.0687 7.2144 73.5231 7.416 71.9775 7.6512C71.2047 7.752 70.4487 7.8696 69.7095 8.004C68.9703 8.1048 68.2311 8.1888 67.4919 8.256C67.0887 8.4912 66.7023 8.76 66.3327 9.0624C65.9967 9.3312 65.6103 9.5664 65.1735 9.768C65.1063 9.7344 65.0055 9.6504 64.8711 9.516C63.9975 8.9112 63.1575 8.2224 62.3511 7.4496C61.5447 6.6432 61.1919 5.6184 61.2927 4.3752C61.4607 4.308 61.6287 4.2912 61.7967 4.3248C61.9983 4.3248 62.1831 4.3416 62.3511 4.3752C62.5863 4.4424 62.8047 4.4928 63.0063 4.5264C63.2415 4.5264 63.4599 4.4256 63.6615 4.224C64.6359 4.7616 65.8287 4.9968 67.2399 4.9296C68.6511 4.8288 70.1127 4.6608 71.6247 4.4256C72.1287 4.3584 72.6327 4.2912 73.1367 4.224C73.6407 4.1568 74.1279 4.1064 74.5983 4.0728C76.1439 3.9384 77.6392 3.8544 79.0839 3.8208C80.5623 3.7872 81.9903 3.7536 83.3679 3.72C83.4351 3.5184 83.5527 3.4176 83.7207 3.4176C83.8887 3.384 84.0399 3.2664 84.1743 3.0648C85.4847 3.3 86.7447 3.6024 87.9543 3.972C89.1639 4.3416 90.2727 4.812 91.2807 5.3832C91.1463 5.652 91.1127 5.904 91.1799 6.1392C91.2471 6.3744 91.3311 6.5928 91.4319 6.7944C91.5327 7.0296 91.5999 7.2648 91.6335 7.5C91.7007 7.7352 91.6335 7.9872 91.4319 8.256Z" fill="black"/>
</svg>
