<svg width="206" height="37" viewBox="0 0 206 37" fill="none" xmlns="http://www.w3.org/2000/svg">
<path d="M35.7459 5.37597C35.2419 5.79597 34.6399 6.11797 33.9399 6.34197C33.2679 6.56597 32.7079 6.91597 32.2599 7.39198C32.1759 8.93198 32.1619 10.598 32.2179 12.39C32.3019 14.154 32.3999 15.988 32.5119 17.892C32.6799 20.972 32.7919 24.108 32.8479 27.3C32.9039 30.464 32.6659 33.404 32.1339 36.12C31.5459 36.176 31.0839 36.176 30.7479 36.12C30.4119 36.092 30.0199 36.022 29.5719 35.91C29.4039 35.882 29.2779 35.854 29.1939 35.826C28.9699 35.322 28.7739 34.874 28.6059 34.482C28.4659 34.09 28.3259 33.67 28.1859 33.222C24.6299 33.278 21.1719 33.404 17.8119 33.6C14.4799 33.824 11.1899 34.132 7.9419 34.524C7.8019 34.524 7.7039 34.566 7.6479 34.65C7.5919 34.734 7.5499 34.818 7.5219 34.902C7.4939 35.014 7.4519 35.112 7.3959 35.196C7.3679 35.28 7.2699 35.294 7.1019 35.238C6.2619 35.042 5.5199 34.636 4.8759 34.02C4.2599 33.432 3.7839 32.69 3.4479 31.794C3.5039 31.542 3.6159 31.304 3.7839 31.08C3.9519 30.856 4.0779 30.604 4.1619 30.324C4.3579 29.708 4.4559 29.106 4.4559 28.518C4.4839 27.902 4.4839 27.272 4.4559 26.628C4.4279 26.208 4.4139 25.788 4.4139 25.368C4.4139 24.948 4.4279 24.514 4.4559 24.066C4.4839 23.73 4.5119 23.38 4.5399 23.016C4.5679 22.652 4.5959 22.274 4.6239 21.882C4.7079 20.594 4.7919 19.208 4.8759 17.724C4.9599 16.212 4.9739 14.686 4.9179 13.146C4.8619 11.606 4.6659 10.122 4.3299 8.69397C3.8259 8.18997 3.2799 7.72797 2.6919 7.30797C2.1319 6.85997 1.5579 6.41197 0.969902 5.96397C1.5299 5.37597 2.2159 4.92797 3.0279 4.61997C3.8399 4.28397 4.6799 3.98997 5.5479 3.73797C6.4439 3.48597 7.2979 3.20597 8.1099 2.89798C9.2859 3.12197 10.6579 3.20597 12.2259 3.14997C13.8219 3.06597 15.4459 2.95397 17.0979 2.81397C18.2459 2.70197 19.3659 2.61797 20.4579 2.56197C21.5779 2.47797 22.5999 2.44997 23.5239 2.47797C23.6079 2.47797 23.7479 2.47797 23.9439 2.47797C24.6439 2.50597 25.4699 2.51998 26.4219 2.51998C27.3739 2.49197 28.1579 2.32397 28.7739 2.01597C29.5859 2.01597 30.4679 2.08597 31.4199 2.22597C32.3999 2.33797 33.2959 2.63197 34.1079 3.10798C34.9199 3.58397 35.4659 4.33997 35.7459 5.37597ZM28.7739 31.206C28.7739 30.73 28.7739 30.268 28.7739 29.82C28.7739 29.344 28.7879 28.868 28.8159 28.392C28.8159 26.096 28.8159 23.842 28.8159 21.63C28.8159 19.418 28.7459 17.038 28.6059 14.49C28.5219 12.838 28.3819 11.158 28.1859 9.44997C28.0179 7.71397 27.6259 6.15997 27.0099 4.78797C24.7419 4.73197 22.4319 4.74597 20.0799 4.82997C17.7559 4.91397 15.5159 5.09597 13.3599 5.37597C11.2039 5.65597 9.2579 6.08997 7.5219 6.67797C7.6059 6.98597 7.7459 7.27997 7.9419 7.55998C8.1659 7.83998 8.3619 8.17597 8.5299 8.56797C8.2499 10.864 8.0539 13.342 7.9419 16.002C7.8299 18.662 7.7459 21.336 7.6899 24.024C7.6619 26.712 7.6059 29.246 7.5219 31.626C8.6699 31.682 9.9439 31.682 11.3439 31.626C12.7719 31.542 14.2699 31.458 15.8379 31.374C17.9659 31.262 20.1499 31.164 22.3899 31.08C24.6579 30.996 26.7859 31.038 28.7739 31.206ZM26.4639 13.65C25.5119 15.078 24.6299 16.45 23.8179 17.766C23.0339 19.054 22.1099 20.146 21.0459 21.042C21.5779 21.686 22.1519 22.302 22.7679 22.89C23.3839 23.478 23.9299 24.108 24.4059 24.78C24.9099 25.452 25.2459 26.236 25.4139 27.132C24.8819 27.496 24.3499 27.664 23.8179 27.636C23.3139 27.58 22.8099 27.44 22.3059 27.216C21.6059 26.88 20.9199 26.418 20.2479 25.83C19.6039 25.214 19.0019 24.724 18.4419 24.36C18.1619 24.584 17.8399 24.78 17.4759 24.948C17.1399 25.116 16.8319 25.312 16.5519 25.536C16.5799 25.62 16.6499 25.662 16.7619 25.662C16.9019 25.662 16.9719 25.662 16.9719 25.662C16.9439 25.69 16.9159 25.718 16.8879 25.746C16.7759 25.858 16.6499 25.97 16.5099 26.082C16.3979 26.166 16.2579 26.124 16.0899 25.956C15.8659 26.404 15.5579 26.852 15.1659 27.3C14.8019 27.748 14.2419 28.084 13.4859 28.308C13.4019 28.28 13.3179 28.322 13.2339 28.434C13.1779 28.518 13.2199 28.616 13.3599 28.728C13.2759 28.84 13.2059 28.896 13.1499 28.896C13.0939 28.896 13.0379 28.882 12.9819 28.854C12.9259 28.854 12.8839 28.868 12.8559 28.896C12.8559 28.896 12.8699 28.98 12.8979 29.148C12.6179 29.092 12.3939 29.134 12.2259 29.274C12.0859 29.386 12.0159 29.442 12.0159 29.442C12.0159 29.218 11.9179 29.134 11.7219 29.19C11.5539 29.246 11.3719 29.316 11.1759 29.4C11.0639 29.456 10.9519 29.512 10.8399 29.568C10.7559 29.596 10.6719 29.61 10.5879 29.61C10.5879 29.358 10.4759 29.218 10.2519 29.19C10.0279 29.134 9.7619 29.092 9.4539 29.064C9.1459 29.036 8.8379 28.924 8.5299 28.728C8.5859 28.392 8.8519 28.112 9.3279 27.888C9.8319 27.664 10.2939 27.454 10.7139 27.258C10.7139 27.342 10.7419 27.426 10.7979 27.51C10.8819 27.622 10.9099 27.734 10.8819 27.846C11.0499 27.79 11.1619 27.692 11.2179 27.552C11.3019 27.384 11.4279 27.286 11.5959 27.258C11.5679 27.146 11.4699 27.132 11.3019 27.216C11.1059 27.3 10.9659 27.272 10.8819 27.132C11.1059 27.048 11.3299 26.908 11.5539 26.712C11.7779 26.516 12.0019 26.32 12.2259 26.124C12.5619 25.788 12.8839 25.508 13.1919 25.284C13.4999 25.06 13.7939 25.046 14.0739 25.242C14.2979 25.214 14.4239 25.13 14.4519 24.99C14.5079 24.822 14.6199 24.71 14.7879 24.654C14.7599 24.514 14.6759 24.514 14.5359 24.654C14.4519 24.71 14.3679 24.766 14.2839 24.822C14.2279 24.85 14.1579 24.85 14.0739 24.822C14.2419 24.206 14.5499 23.744 14.9979 23.436C15.4739 23.128 15.8939 22.764 16.2579 22.344C15.6139 21.476 14.7879 20.79 13.7799 20.286C12.7999 19.782 11.7779 19.306 10.7139 18.858C11.4699 18.522 12.2679 18.452 13.1079 18.648C13.9479 18.844 14.7879 19.082 15.6279 19.362C16.0199 19.502 16.3979 19.642 16.7619 19.782C17.1539 19.894 17.5179 19.978 17.8539 20.034C18.5819 19.362 19.2959 18.592 19.9959 17.724C20.7239 16.856 21.2979 15.904 21.7179 14.868C22.1659 13.804 22.3339 12.67 22.2219 11.466C21.8019 11.158 21.7039 10.626 21.9279 9.86998C22.7959 9.72997 23.5659 9.85597 24.2379 10.248C24.9379 10.64 25.4839 11.158 25.8759 11.802C26.2959 12.418 26.4919 13.034 26.4639 13.65ZM13.7799 16.968C12.7999 16.884 12.0019 16.562 11.3859 16.002C10.7699 15.414 10.3079 14.7 9.9999 13.86C9.6919 12.992 9.4959 12.096 9.4119 11.172C10.5039 11.312 11.4419 11.676 12.2259 12.264C13.0099 12.824 13.5559 13.524 13.8639 14.364C14.1719 15.204 14.1439 16.072 13.7799 16.968ZM19.7439 14.784C19.6039 14.756 19.4639 14.812 19.3239 14.952C19.2119 15.036 19.1139 15.078 19.0299 15.078C18.1899 14.91 17.4759 14.49 16.8879 13.818C16.2999 13.146 15.7539 12.46 15.2499 11.76C15.3619 11.396 15.3899 11.13 15.3339 10.962C15.2779 10.766 15.2079 10.598 15.1239 10.458C15.0399 10.346 14.9699 10.234 14.9139 10.122C14.8579 9.98198 14.8159 9.79997 14.7879 9.57597C15.7119 9.63197 16.5659 9.86997 17.3499 10.29C18.1619 10.682 18.7919 11.256 19.2399 12.012C19.7159 12.74 19.8839 13.664 19.7439 14.784ZM13.0659 27.426C12.9259 27.538 12.6739 27.664 12.3099 27.804C11.9459 27.944 11.7639 28.154 11.7639 28.434C11.9039 28.434 12.0859 28.364 12.3099 28.224C12.5619 28.084 12.7719 27.93 12.9399 27.762C13.1079 27.594 13.1499 27.482 13.0659 27.426ZM13.3599 25.83C12.9959 25.858 12.6599 26.04 12.3519 26.376C12.0439 26.684 11.8899 26.838 11.8899 26.838C12.1979 26.726 12.4639 26.586 12.6879 26.418C12.9399 26.222 13.1639 26.026 13.3599 25.83ZM16.0899 24.234C15.9219 24.234 15.7959 24.276 15.7119 24.36C15.6559 24.444 15.6139 24.542 15.5859 24.654C15.5019 24.794 15.4319 24.892 15.3759 24.948L15.8379 25.116C15.7819 24.976 15.7679 24.878 15.7959 24.822C15.8519 24.738 15.9079 24.668 15.9639 24.612C16.0759 24.5 16.1179 24.374 16.0899 24.234ZM81.3579 33.096C81.0499 33.208 80.7559 33.334 80.4759 33.474C80.1959 33.614 79.9159 33.754 79.6359 33.894C76.4999 33.138 73.2799 32.774 69.9759 32.802C66.6719 32.802 63.5219 33.236 60.5259 34.104C60.3579 34.216 60.2319 34.342 60.1479 34.482C60.0919 34.65 60.0499 34.79 60.0219 34.902C59.5459 34.93 58.9999 34.916 58.3839 34.86C57.7959 34.804 57.2219 34.594 56.6619 34.23C56.5779 33.39 56.2559 32.872 55.6959 32.676C55.1639 32.48 54.4499 32.494 53.5539 32.718C52.9379 32.886 52.1819 33.124 51.2859 33.432C50.4179 33.712 49.7599 33.964 49.3119 34.188C48.8639 34.412 48.4999 34.762 48.2199 35.238C47.9679 35.742 47.6879 36.162 47.3799 36.498C46.5399 36.498 45.8679 36.302 45.3639 35.91C44.8599 35.518 44.3979 35.056 43.9779 34.524C43.5859 34.02 43.1239 33.586 42.5919 33.222C42.6199 33.11 42.6899 32.97 42.8019 32.802C42.8299 32.718 42.8579 32.634 42.8859 32.55C42.9419 32.438 42.9699 32.312 42.9699 32.172C44.0339 32.508 45.1819 32.564 46.4139 32.34C47.6459 32.116 48.8079 31.682 49.8999 31.038C49.8439 29.47 49.7879 27.916 49.7319 26.376C49.7039 24.808 49.6619 23.156 49.6059 21.42C48.9059 21.588 48.1359 21.742 47.2959 21.882C46.4559 21.994 45.6999 21.966 45.0279 21.798C44.3559 21.63 43.9079 21.224 43.6839 20.58C44.5519 20.076 45.4619 19.768 46.4139 19.656C47.3659 19.516 48.4019 19.306 49.5219 19.026C49.5499 18.242 49.5359 17.542 49.4799 16.926C49.4239 16.31 49.2699 15.778 49.0179 15.33C48.7379 15.358 48.3739 15.302 47.9259 15.162C47.5059 14.994 47.1279 14.84 46.7919 14.7C46.0639 15.82 45.4759 16.8 45.0279 17.64C44.6079 18.48 44.1459 19.278 43.6419 20.034C43.1379 20.79 42.3819 21.588 41.3739 22.428C41.2899 22.4 41.2059 22.372 41.1219 22.344C41.0379 22.288 40.9539 22.232 40.8699 22.176C40.6459 22.064 40.4219 21.966 40.1979 21.882C39.9739 21.77 39.7639 21.742 39.5679 21.798C39.7919 21.21 39.9879 20.776 40.1559 20.496C40.3519 20.188 40.5339 19.95 40.7019 19.782C40.8979 19.614 41.1079 19.418 41.3319 19.194C41.5559 18.97 41.8359 18.606 42.1719 18.102C43.3199 15.722 44.4819 13.37 45.6579 11.046C46.8619 8.72198 47.9679 6.29997 48.9759 3.77997C48.8359 3.07997 48.5699 2.51997 48.1779 2.09997C47.7859 1.65197 47.4779 1.11997 47.2539 0.503974C47.8699 0.419975 48.5559 0.419975 49.3119 0.503974C50.0679 0.559975 50.7819 0.811975 51.4539 1.25997C52.1259 1.70797 52.6299 2.44998 52.9659 3.48598C54.1139 4.01798 55.1639 4.75997 56.1159 5.71197C57.0679 6.63597 57.7119 7.74197 58.0479 9.02997C57.4039 9.39397 56.7599 9.44997 56.1159 9.19797C55.4999 8.94597 54.9119 8.55397 54.3519 8.02197C53.7919 7.46197 53.2739 6.91598 52.7979 6.38398C52.6019 6.13198 52.4059 5.90797 52.2099 5.71197C52.0139 5.48797 51.8319 5.30597 51.6639 5.16597C51.1319 6.00597 50.6699 6.88797 50.2779 7.81197C49.8859 8.70797 49.4939 9.58998 49.1019 10.458C48.7099 11.326 48.2199 12.11 47.6319 12.81C47.8839 12.754 48.1359 12.698 48.3879 12.642C48.6399 12.586 48.9059 12.53 49.1859 12.474C50.1099 12.278 51.0199 12.124 51.9159 12.012C52.8119 11.872 53.6379 11.886 54.3939 12.054C55.1779 12.194 55.8639 12.6 56.4519 13.272C56.0319 13.58 55.5559 13.79 55.0239 13.902C54.4919 14.014 53.9599 14.126 53.4279 14.238C52.9239 14.35 52.4619 14.56 52.0419 14.868C52.2939 15.204 52.4059 15.61 52.3779 16.086C52.3779 16.534 52.3499 17.01 52.2939 17.514C52.2939 17.626 52.2799 17.738 52.2519 17.85C52.2519 17.962 52.2519 18.074 52.2519 18.186C53.2319 17.822 54.0999 17.78 54.8559 18.06C55.6399 18.34 56.3679 18.886 57.0399 19.698C56.5639 19.894 56.0319 20.034 55.4439 20.118C54.8839 20.202 54.3239 20.3 53.7639 20.412C53.2319 20.496 52.7699 20.692 52.3779 21C52.2939 22.204 52.2379 23.324 52.2099 24.36C52.2099 25.368 52.1959 26.376 52.1679 27.384C52.1679 28.364 52.1119 29.442 51.9999 30.618C52.6159 30.45 53.2179 30.408 53.8059 30.492C54.3939 30.576 54.9819 30.688 55.5699 30.828C55.6259 30.856 55.6679 30.87 55.6959 30.87C55.7519 30.87 55.8499 30.884 55.9899 30.912C56.6339 31.052 57.2639 31.178 57.8799 31.29C58.5239 31.374 59.1539 31.332 59.7699 31.164C59.7419 30.856 59.7279 30.492 59.7279 30.072C59.7559 29.652 59.7839 29.204 59.8119 28.728C59.8679 28.084 59.9099 27.398 59.9379 26.67C59.9659 25.942 59.9379 25.228 59.8539 24.528C59.5739 24.248 59.2799 23.996 58.9719 23.772C58.6639 23.52 58.3279 23.296 57.9639 23.1C57.9359 22.904 57.9219 22.778 57.9219 22.722C57.9219 22.666 57.9079 22.624 57.8799 22.596C57.8799 22.54 57.8519 22.484 57.7959 22.428C57.7679 22.372 57.7119 22.246 57.6279 22.05C58.1879 21.714 58.9859 21.476 60.0219 21.336C61.0579 21.168 62.2199 21.056 63.5079 21C64.8239 20.916 66.1679 20.804 67.5399 20.664C68.9119 20.524 70.1859 20.3 71.3619 19.992C72.1739 19.768 73.0419 19.726 73.9659 19.866C74.9179 20.006 75.7859 20.314 76.5699 20.79C77.3819 21.266 77.9419 21.91 78.2499 22.722C77.7459 23.002 77.2839 23.212 76.8639 23.352C76.4719 23.492 76.1499 23.716 75.8979 24.024C75.7859 25.144 75.6039 26.208 75.3519 27.216C75.1279 28.224 74.9179 29.26 74.7219 30.324C74.9739 30.52 75.2259 30.534 75.4779 30.366C75.7299 30.17 75.9259 30.002 76.0659 29.862C76.9899 29.974 77.9699 30.296 79.0059 30.828C80.0699 31.36 80.8539 32.116 81.3579 33.096ZM78.7539 9.19797C77.6339 9.39398 76.6119 9.51998 75.6879 9.57597C74.7919 9.63197 73.6859 9.72997 72.3699 9.86998C72.3139 9.95397 72.2579 10.038 72.2019 10.122C72.1739 10.206 72.1319 10.29 72.0759 10.374C71.7679 10.99 71.3759 11.592 70.8999 12.18C70.4519 12.74 69.7799 13.006 68.8839 12.978C68.9119 12.754 68.9539 12.516 69.0099 12.264C69.0939 12.012 69.1779 11.746 69.2619 11.466C69.4299 10.99 69.5699 10.528 69.6819 10.08C69.7939 9.60397 69.7939 9.18397 69.6819 8.81997C69.5699 9.23997 69.4019 9.60397 69.1779 9.91198C68.9539 10.22 68.6039 10.402 68.1279 10.458C67.9879 10.794 67.9039 11.158 67.8759 11.55C67.8479 11.942 67.8339 12.334 67.8339 12.726C67.8619 13.202 67.8479 13.664 67.7919 14.112C67.7639 14.56 67.6099 14.952 67.3299 15.288C67.1059 15.344 66.9239 15.372 66.7839 15.372C66.6719 15.372 66.5599 15.372 66.4479 15.372C66.3079 15.344 66.1679 15.344 66.0279 15.372C65.8879 15.372 65.6779 15.4 65.3979 15.456C65.5099 15.82 65.5799 16.17 65.6079 16.506C65.6359 16.842 65.5799 17.192 65.4399 17.556C65.8039 17.724 66.1819 17.836 66.5739 17.892C66.9659 17.948 67.3439 18.032 67.7079 18.144C68.0719 18.228 68.3799 18.466 68.6319 18.858C68.2959 19.194 67.7219 19.432 66.9099 19.572C66.1259 19.712 65.2579 19.81 64.3059 19.866C63.3539 19.894 62.4579 19.936 61.6179 19.992C61.4219 20.02 61.3379 20.09 61.3659 20.202C61.3939 20.286 61.4359 20.37 61.4919 20.454C61.5759 20.622 61.5759 20.72 61.4919 20.748C60.7079 20.804 60.0359 20.72 59.4759 20.496C58.9439 20.244 58.4819 19.908 58.0899 19.488C58.0339 19.068 58.1739 18.872 58.5099 18.9C58.3699 18.312 58.2999 17.64 58.2999 16.884C58.2999 16.1 58.3279 15.288 58.3839 14.448C58.4119 13.58 58.4259 12.712 58.4259 11.844C58.4539 10.948 58.3839 10.108 58.2159 9.32398C58.5519 8.51197 58.5519 7.88197 58.2159 7.43397C57.9079 6.98597 57.5439 6.60797 57.1239 6.29997C56.8999 6.10397 56.6899 5.92197 56.4939 5.75397C56.3259 5.58597 56.2279 5.38997 56.1999 5.16597C56.4519 4.94197 56.6339 4.77397 56.7459 4.66198C56.8859 4.52198 56.9699 4.28398 56.9979 3.94797C57.3619 3.89198 57.7399 3.82198 58.1319 3.73797C58.5239 3.62597 58.9299 3.51397 59.3499 3.40197C60.4699 3.12197 61.6179 2.88397 62.7939 2.68797C63.9979 2.46397 65.1459 2.42197 66.2379 2.56197C67.3299 2.67397 68.2959 3.09397 69.1359 3.82197C68.7999 4.10197 68.4639 4.25597 68.1279 4.28398C67.7919 4.31197 67.4559 4.32597 67.1199 4.32597C66.8959 4.29797 66.6719 4.29797 66.4479 4.32597C66.2519 4.32597 66.0419 4.35397 65.8179 4.40997C65.7899 4.49397 65.7759 4.63397 65.7759 4.82997C65.7759 5.02597 65.7759 5.23597 65.7759 5.45997C65.7759 5.87997 65.7619 6.29997 65.7339 6.71997C65.7059 7.11197 65.6219 7.40597 65.4819 7.60197C66.2659 7.51797 66.9239 7.57397 67.4559 7.76998C68.0159 7.96597 68.5619 8.20397 69.0939 8.48397C69.1779 8.51197 69.2619 8.55398 69.3459 8.60997C69.4579 8.63797 69.5559 8.67997 69.6399 8.73598C69.5839 8.53997 69.5139 8.39997 69.4299 8.31597C69.8219 8.14797 70.0739 7.86797 70.1859 7.47597C70.2979 7.05597 70.3679 6.59397 70.3959 6.08997C70.4519 5.58597 70.5359 5.12397 70.6479 4.70397C70.2839 4.31197 69.9479 3.89197 69.6399 3.44397C69.3319 2.99597 68.9679 2.63197 68.5479 2.35197C68.5759 2.15597 68.6319 1.98797 68.7159 1.84797C68.7999 1.70797 68.8699 1.56797 68.9259 1.42797C69.4019 1.62397 69.9619 1.76397 70.6059 1.84797C71.2499 1.93197 71.8379 2.11397 72.3699 2.39397C72.9299 2.67397 73.2799 3.20597 73.4199 3.98997C73.1959 4.43797 73.0699 5.01197 73.0419 5.71197C73.0419 6.38397 72.9439 6.97197 72.7479 7.47597C72.8039 7.47597 72.8739 7.46197 72.9579 7.43397C73.8259 7.32197 74.7359 7.25197 75.6879 7.22397C76.6679 7.19598 77.5079 7.46197 78.2079 8.02197C78.2079 8.18997 78.2219 8.31597 78.2499 8.39997C78.3059 8.48398 78.3759 8.56797 78.4599 8.65197C78.5159 8.70797 78.5719 8.77797 78.6279 8.86197C78.6839 8.94597 78.7259 9.05797 78.7539 9.19797ZM56.4519 27.048C56.3959 27.104 56.3259 27.202 56.2419 27.342C55.8499 27.93 55.4439 28.42 55.0239 28.812C54.6319 29.176 53.9739 29.274 53.0499 29.106C53.1059 28.826 53.1759 28.546 53.2599 28.266C53.3719 27.986 53.4839 27.706 53.5959 27.426C53.9319 26.502 54.1839 25.578 54.3519 24.654C54.5199 23.702 54.2819 22.834 53.6379 22.05C53.6379 21.966 53.7079 21.896 53.8479 21.84C53.9039 21.784 53.9459 21.742 53.9739 21.714C54.0299 21.658 54.0439 21.56 54.0159 21.42C54.8279 21.756 55.5419 22.176 56.1579 22.68C56.7739 23.156 57.1379 23.758 57.2499 24.486C57.3899 25.186 57.1239 26.04 56.4519 27.048ZM77.7879 15.456C77.7039 15.484 77.6619 15.61 77.6619 15.834C77.6619 15.862 77.6619 15.89 77.6619 15.918C77.3259 16.114 76.9339 16.212 76.4859 16.212C76.0659 16.212 75.6319 16.198 75.1839 16.17C74.7359 16.114 74.2879 16.086 73.8399 16.086C73.4199 16.086 73.0419 16.184 72.7059 16.38C72.2019 16.268 71.6979 16.17 71.1939 16.086C70.7179 16.002 70.2839 15.82 69.8919 15.54C69.5279 15.26 69.2479 14.784 69.0519 14.112C69.4719 14.14 69.9059 14.14 70.3539 14.112C70.8019 14.056 71.2639 14 71.7399 13.944C72.5239 13.86 73.3079 13.804 74.0919 13.776C74.8759 13.748 75.5899 13.846 76.2339 14.07C76.8779 14.294 77.3959 14.756 77.7879 15.456ZM65.4399 9.82797C64.5439 10.052 63.7319 10.164 63.0039 10.164C62.2759 10.136 61.5339 10.36 60.7779 10.836C60.8059 11.452 60.7919 12.026 60.7359 12.558C60.7079 13.062 60.6799 13.496 60.6519 13.86C60.6239 14 60.6099 14.098 60.6099 14.154C61.5339 13.902 62.3879 13.776 63.1719 13.776C63.9559 13.776 64.6559 13.608 65.2719 13.272C65.2719 13.188 65.2999 13.076 65.3559 12.936C65.4119 12.488 65.4679 11.998 65.5239 11.466C65.6079 10.934 65.5799 10.388 65.4399 9.82797ZM71.9499 22.05C71.6139 21.938 71.2639 21.896 70.8999 21.924C70.5639 21.952 70.2419 21.994 69.9339 22.05C69.8219 22.078 69.7099 22.106 69.5979 22.134C69.4859 22.134 69.3879 22.134 69.3039 22.134C69.9199 22.694 70.2279 23.506 70.2279 24.57C70.2279 25.634 70.1719 26.684 70.0599 27.72C70.0039 28.196 69.9619 28.644 69.9339 29.064C69.9059 29.484 69.9059 29.862 69.9339 30.198C70.0459 30.198 70.1439 30.198 70.2279 30.198C70.3399 30.198 70.4519 30.198 70.5639 30.198C70.7039 30.198 70.8439 30.198 70.9839 30.198C71.1519 30.198 71.3339 30.184 71.5299 30.156C71.5579 29.792 71.5999 29.414 71.6559 29.022C71.7119 28.63 71.7679 28.238 71.8239 27.846C71.9639 26.866 72.0619 25.886 72.1179 24.906C72.2019 23.898 72.1459 22.946 71.9499 22.05ZM64.1799 30.408C64.1519 30.044 64.1379 29.666 64.1379 29.274C64.1659 28.882 64.1939 28.49 64.2219 28.098C64.2499 27.146 64.2359 26.222 64.1799 25.326C64.1519 24.402 63.8999 23.66 63.4239 23.1C63.2279 23.1 63.0599 23.156 62.9199 23.268C62.7799 23.352 62.6399 23.408 62.4999 23.436C62.2759 24.5 62.1779 25.634 62.2059 26.838C62.2339 28.042 62.3179 29.344 62.4579 30.744C62.7659 30.744 63.0599 30.702 63.3399 30.618C63.6199 30.534 63.8999 30.464 64.1799 30.408ZM68.0019 23.352C67.9739 23.24 67.9039 23.114 67.7919 22.974C67.7359 22.862 67.6939 22.764 67.6659 22.68C67.6379 22.568 67.6939 22.456 67.8339 22.344C66.8539 22.428 66.0979 22.554 65.5659 22.722C66.1259 23.226 66.4059 23.968 66.4059 24.948C66.4339 25.9 66.4059 26.88 66.3219 27.888C66.2659 28.336 66.2239 28.77 66.1959 29.19C66.1679 29.582 66.1679 29.96 66.1959 30.324C66.2799 30.296 66.3779 30.282 66.4899 30.282C66.6019 30.282 66.7139 30.282 66.8259 30.282C67.0219 30.282 67.2039 30.282 67.3719 30.282C67.5399 30.254 67.6799 30.198 67.7919 30.114C67.7919 30.03 67.8059 29.89 67.8339 29.694C67.9179 28.798 68.0019 27.748 68.0859 26.544C68.1699 25.312 68.1419 24.248 68.0019 23.352ZM47.7159 29.736C47.5199 29.736 47.3939 29.848 47.3379 30.072C46.5819 29.82 45.9659 29.372 45.4899 28.728C45.0139 28.084 44.6919 27.314 44.5239 26.418C44.3559 25.522 44.3419 24.626 44.4819 23.73C45.0419 24.178 45.6159 24.696 46.2039 25.284C46.7919 25.844 47.2399 26.488 47.5479 27.216C47.8839 27.944 47.9399 28.784 47.7159 29.736ZM63.5079 7.93798C63.5079 7.79797 63.5079 7.62997 63.5079 7.43397C63.5079 7.23797 63.5079 7.02797 63.5079 6.80398C63.5079 6.46797 63.5079 6.13197 63.5079 5.79597C63.5079 5.43197 63.4939 5.12398 63.4659 4.87197C63.0459 4.75997 62.5699 4.80197 62.0379 4.99797C61.5339 5.19397 61.0439 5.38997 60.5679 5.58597L60.5259 5.62798C60.5819 6.24397 60.6239 6.78997 60.6519 7.26597C60.6799 7.71398 60.7079 8.11997 60.7359 8.48397C61.2399 8.39997 61.7439 8.31597 62.2479 8.23197C62.7799 8.11997 63.1999 8.02197 63.5079 7.93798ZM63.4659 15.708C63.1019 15.68 62.7099 15.708 62.2899 15.792C61.8699 15.848 61.4499 15.918 61.0299 16.002C60.8339 16.058 60.6799 16.1 60.5679 16.128C60.5119 16.324 60.4839 16.52 60.4839 16.716C60.4839 16.884 60.4839 17.052 60.4839 17.22C60.5119 17.36 60.5259 17.514 60.5259 17.682C60.5259 17.85 60.5119 18.032 60.4839 18.228C60.6799 18.256 60.8759 18.256 61.0719 18.228C61.2959 18.2 61.5339 18.158 61.7859 18.102C62.0099 18.046 62.2479 18.004 62.4999 17.976C62.7519 17.92 63.0179 17.892 63.2979 17.892C63.3539 17.556 63.3959 17.206 63.4239 16.842C63.4799 16.45 63.4939 16.072 63.4659 15.708ZM102.484 0.965975C102.12 1.60998 101.686 2.09997 101.182 2.43597C100.678 2.74397 100.146 3.00997 99.5859 3.23397C99.0259 3.45797 98.4939 3.79397 97.9899 4.24197C96.6739 5.38997 95.5399 6.94397 94.5879 8.90398C93.6639 10.836 92.9779 12.95 92.5299 15.246C92.0819 17.542 91.9139 19.824 92.0259 22.092C92.1659 24.388 92.2779 26.614 92.3619 28.77C92.4739 30.926 92.7259 33.082 93.1179 35.238C92.5859 35.182 92.1379 34.93 91.7739 34.482C91.4099 34.062 91.0879 33.6 90.8079 33.096C90.0519 31.696 89.6179 30.142 89.5059 28.434C89.3939 26.698 89.2959 24.724 89.2119 22.512C89.1279 20.132 89.1699 17.892 89.3379 15.792C89.5339 13.692 90.0239 11.648 90.8079 9.65997C91.0319 9.04397 91.2839 8.41398 91.5639 7.76998C91.8719 7.12598 92.2079 6.53798 92.5719 6.00598C93.6359 4.57798 94.9519 3.42998 96.5199 2.56197C98.1159 1.69397 100.104 1.16197 102.484 0.965975ZM116.008 15.456C115.168 16.268 114.132 16.716 112.9 16.8C111.696 16.856 110.506 16.856 109.33 16.8C108.798 16.772 108.28 16.758 107.776 16.758C107.272 16.758 106.81 16.786 106.39 16.842C104.962 16.646 103.632 16.338 102.4 15.918C101.196 15.498 100.132 14.938 99.2079 14.238C100.748 13.818 102.498 13.51 104.458 13.314C106.418 13.118 108.378 13.09 110.338 13.23C112.326 13.37 114.09 13.762 115.63 14.406C115.63 14.602 115.672 14.77 115.756 14.91C115.84 15.022 115.924 15.204 116.008 15.456ZM117.772 31.584C117.744 31.808 117.562 31.78 117.226 31.5C117.142 31.444 117.044 31.388 116.932 31.332C116.848 31.248 116.764 31.206 116.68 31.206C116.288 31.318 115.882 31.346 115.462 31.29C115.042 31.234 114.636 31.164 114.244 31.08C114.132 31.052 114.048 31.038 113.992 31.038C113.964 30.758 114.006 30.534 114.118 30.366C113.922 30.394 113.824 30.464 113.824 30.576C113.824 30.66 113.782 30.73 113.698 30.786C111.654 30.03 109.89 28.994 108.406 27.678C106.95 26.362 105.564 24.962 104.248 23.478C105.06 23.17 105.872 23.114 106.684 23.31C107.524 23.506 108.336 23.814 109.12 24.234C109.904 24.654 110.646 25.088 111.346 25.536C111.514 25.648 111.682 25.76 111.85 25.872C112.018 25.984 112.186 26.082 112.354 26.166C113.39 26.782 114.342 27.44 115.21 28.14C116.078 28.84 116.848 29.498 117.52 30.114C117.464 30.366 117.45 30.576 117.478 30.744C117.534 30.912 117.59 31.08 117.646 31.248C117.702 31.388 117.744 31.5 117.772 31.584ZM164.686 23.352C163.762 23.772 162.824 23.982 161.872 23.982C160.416 23.954 159.072 23.492 157.84 22.596C156.636 21.7 155.754 20.65 155.194 19.446C154.382 19.614 153.794 20.006 153.43 20.622C153.094 21.238 152.842 21.952 152.674 22.764C152.534 23.548 152.352 24.304 152.128 25.032C151.904 25.76 151.512 26.334 150.952 26.754C151.092 26.978 151.274 27.16 151.498 27.3C151.75 27.412 151.918 27.622 152.002 27.93C151.694 28.546 151.386 29.162 151.078 29.778C150.798 30.394 150.504 31.01 150.196 31.626C150.28 31.71 150.406 31.766 150.574 31.794C150.77 31.794 150.966 31.78 151.162 31.752C151.358 31.724 151.54 31.724 151.708 31.752C151.904 31.752 152.044 31.794 152.128 31.878C152.296 31.794 152.408 31.682 152.464 31.542C152.548 31.374 152.618 31.192 152.674 30.996C153.682 30.968 154.704 31.066 155.74 31.29C156.776 31.486 157.714 31.85 158.554 32.382C159.394 32.886 160.01 33.586 160.402 34.482C159.758 34.818 158.89 34.958 157.798 34.902C156.706 34.846 155.502 34.734 154.186 34.566C153.262 34.482 152.296 34.384 151.288 34.272C150.308 34.188 149.328 34.16 148.348 34.188C147.592 34.216 146.612 34.244 145.408 34.272C144.204 34.328 142.958 34.384 141.67 34.44C140.41 34.524 139.262 34.622 138.226 34.734C137.442 34.818 136.798 35.014 136.294 35.322C135.79 35.658 135.118 35.98 134.278 36.288C133.606 36.54 133.13 36.61 132.85 36.498C132.598 36.386 132.332 36.176 132.052 35.868C131.968 35.784 131.898 35.714 131.842 35.658C131.786 35.602 131.716 35.532 131.632 35.448C131.072 34.916 130.596 34.384 130.204 33.852C129.812 33.348 129.616 32.774 129.616 32.13C130.736 32.55 131.8 32.746 132.808 32.718C133.844 32.69 134.894 32.606 135.958 32.466C136.434 32.41 136.91 32.354 137.386 32.298C137.89 32.242 138.394 32.214 138.898 32.214C138.562 31.29 138.184 30.408 137.764 29.568C137.344 28.728 136.854 27.958 136.294 27.258C136.574 27.258 136.798 27.3 136.966 27.384C137.162 27.44 137.372 27.482 137.596 27.51C137.652 27.398 137.624 27.286 137.512 27.174C137.428 27.034 137.33 26.894 137.218 26.754C137.106 26.642 136.994 26.516 136.882 26.376C136.77 26.236 136.7 26.096 136.672 25.956C136.952 25.284 137.092 24.542 137.092 23.73C137.064 22.582 136.77 21.504 136.21 20.496C135.65 19.488 135.006 18.718 134.278 18.186C133.27 19.334 132.192 20.524 131.044 21.756C129.896 22.988 128.832 24.066 127.852 24.99C127.488 25.214 127.124 25.354 126.76 25.41C126.424 25.438 126.102 25.452 125.794 25.452C125.71 25.144 125.486 24.962 125.122 24.906C124.758 24.85 124.408 24.85 124.072 24.906C123.736 24.934 123.568 24.948 123.568 24.948C125.724 23.576 127.628 21.966 129.28 20.118C130.932 18.27 132.57 16.408 134.194 14.532C133.55 13.636 132.948 12.712 132.388 11.76C131.856 10.78 131.338 9.77198 130.834 8.73598C131.562 8.79197 132.234 9.01597 132.85 9.40797C133.466 9.77197 134.054 10.192 134.614 10.668C135.202 11.144 135.776 11.578 136.336 11.97C137.232 11.074 137.974 10.024 138.562 8.81997C139.178 7.61597 139.808 6.43997 140.452 5.29197C139.864 5.34797 139.136 5.50197 138.268 5.75397C137.428 6.00597 136.602 6.17397 135.79 6.25797C135.594 5.66997 135.272 5.16597 134.824 4.74597C134.376 4.29797 133.956 3.86397 133.564 3.44397C133.172 2.99597 132.948 2.49197 132.892 1.93198C133.06 1.93198 133.214 1.94598 133.354 1.97397C133.494 2.00197 133.634 2.02997 133.774 2.05797C133.998 2.11397 134.208 2.15597 134.404 2.18397C134.6 2.18397 134.782 2.08597 134.95 1.88997C135.258 2.28197 135.636 2.56197 136.084 2.72997C136.532 2.86997 136.994 2.93997 137.47 2.93997C138.114 2.93997 138.772 2.85597 139.444 2.68797C140.144 2.49197 140.802 2.30997 141.418 2.14198C141.642 2.08597 141.754 1.94597 141.754 1.72197C141.782 1.49797 141.852 1.30197 141.964 1.13397C142.664 1.02197 143.28 1.10598 143.812 1.38597C144.372 1.66597 144.932 1.98797 145.492 2.35197C145.716 2.49197 145.94 2.64597 146.164 2.81397C146.388 2.95397 146.626 3.07997 146.878 3.19197C146.878 3.38797 146.878 3.55598 146.878 3.69598C146.906 3.83597 146.934 3.97597 146.962 4.11597C146.962 4.28397 146.962 4.45197 146.962 4.61997C146.99 4.75997 146.976 4.92797 146.92 5.12397C146.836 5.12397 146.696 5.12397 146.5 5.12397C146.36 5.12397 146.22 5.13797 146.08 5.16597C145.94 5.16597 145.828 5.20797 145.744 5.29197C146.388 5.57197 146.962 5.92197 147.466 6.34197C147.97 6.76197 148.53 6.97198 149.146 6.97198C149.65 6.94397 150.098 6.76197 150.49 6.42597C150.91 6.06197 151.33 5.68397 151.75 5.29197C152.198 4.89997 152.688 4.64797 153.22 4.53597C152.94 4.22797 152.66 3.93397 152.38 3.65397C152.1 3.34597 151.918 2.95397 151.834 2.47797C152.142 2.33797 152.59 2.32397 153.178 2.43597C153.766 2.54797 154.368 2.74397 154.984 3.02397C155.628 3.27597 156.174 3.56997 156.622 3.90597C157.07 4.24197 157.308 4.56397 157.336 4.87197C157.392 5.23598 157.21 5.57198 156.79 5.87997C156.37 6.15997 155.978 6.36997 155.614 6.50997C155.11 6.67797 154.592 6.92997 154.06 7.26597C153.528 7.60197 152.996 7.92397 152.464 8.23197C151.96 8.53997 151.456 8.73597 150.952 8.81997C151.344 9.18397 151.694 9.60397 152.002 10.08C152.338 10.556 152.688 10.934 153.052 11.214C153.472 11.55 153.92 11.606 154.396 11.382C154.648 11.242 154.9 11.046 155.152 10.794C155.404 10.542 155.684 10.388 155.992 10.332C155.992 10.08 155.922 9.85597 155.782 9.65997C155.642 9.46397 155.488 9.29597 155.32 9.15597C155.208 9.01597 155.11 8.88997 155.026 8.77797C154.942 8.66597 154.914 8.55397 154.942 8.44197C155.194 8.30197 155.586 8.24597 156.118 8.27397C156.65 8.30197 157.224 8.38597 157.84 8.52598C158.484 8.66598 159.058 8.86198 159.562 9.11398C159.954 9.30997 160.276 9.51997 160.528 9.74397C160.808 9.96798 160.962 10.22 160.99 10.5C161.046 10.864 160.962 11.172 160.738 11.424C160.514 11.648 160.206 11.83 159.814 11.97C159.366 12.138 158.848 12.278 158.26 12.39C157.672 12.502 157.112 12.614 156.58 12.726C156.048 12.838 155.628 13.02 155.32 13.272C155.936 14 156.664 14.63 157.504 15.162C158.372 15.666 159.254 16.17 160.15 16.674C161.046 17.15 161.844 17.71 162.544 18.354C163.188 18.942 163.72 19.628 164.14 20.412C164.56 21.196 164.742 22.176 164.686 23.352ZM149.02 18.858C148.124 18.998 147.102 19.082 145.954 19.11C144.834 19.138 143.7 19.18 142.552 19.236C141.404 19.292 140.326 19.446 139.318 19.698C139.318 20.454 139.388 21.336 139.528 22.344C139.696 23.324 139.864 24.304 140.032 25.284C140.48 25.256 140.942 25.228 141.418 25.2C141.894 25.144 142.37 25.074 142.846 24.99C143.882 24.878 144.876 24.794 145.828 24.738C146.808 24.682 147.676 24.794 148.432 25.074C148.544 24.01 148.642 22.988 148.726 22.008C148.81 21.028 148.908 19.978 149.02 18.858ZM153.22 16.884C153.22 16.884 153.094 16.716 152.842 16.38C152.618 16.016 152.324 15.568 151.96 15.036C151.624 14.476 151.288 13.93 150.952 13.398C149.468 13.482 147.914 13.678 146.29 13.986C144.694 14.294 143.154 14.462 141.67 14.49C141.054 14.49 140.466 14.462 139.906 14.406C139.346 14.322 138.814 14.182 138.31 13.986C137.834 14.714 137.274 15.344 136.63 15.876C136.014 16.408 135.482 16.982 135.034 17.598C136.266 17.654 137.61 17.626 139.066 17.514C140.522 17.374 142.006 17.22 143.518 17.052C144.47 16.94 145.408 16.842 146.332 16.758C147.284 16.646 148.208 16.562 149.104 16.506C149.16 16.478 149.23 16.408 149.314 16.296C149.426 16.184 149.538 16.086 149.65 16.002C149.762 15.918 149.916 15.89 150.112 15.918C150.672 16.002 151.232 16.184 151.792 16.464C152.38 16.716 152.856 16.856 153.22 16.884ZM147.886 26.838C147.27 26.782 146.514 26.782 145.618 26.838C144.722 26.894 143.784 26.978 142.804 27.09C141.852 27.174 140.956 27.3 140.116 27.468C140.144 28.084 140.284 28.644 140.536 29.148C140.788 29.624 141.068 30.1 141.376 30.576C141.712 31.052 141.964 31.57 142.132 32.13C142.636 32.074 143.294 32.018 144.106 31.962C144.946 31.906 145.758 31.822 146.542 31.71C146.626 31.542 146.71 31.374 146.794 31.206C146.906 31.01 147.018 30.814 147.13 30.618C147.466 30.03 147.746 29.428 147.97 28.812C148.222 28.168 148.194 27.51 147.886 26.838ZM150.49 12.81C150.49 12.81 150.392 12.642 150.196 12.306C150.028 11.942 149.79 11.536 149.482 11.088C149.174 10.612 148.796 10.22 148.348 9.91198C148.236 8.98798 147.802 8.17597 147.046 7.47597C146.318 6.74797 145.59 6.11797 144.862 5.58597C144.75 5.58597 144.652 5.61397 144.568 5.66997C144.512 5.72597 144.456 5.76797 144.4 5.79597C144.344 5.79597 144.26 5.78197 144.148 5.75397C143.616 6.98597 143 8.13397 142.3 9.19797C141.6 10.234 140.844 11.228 140.032 12.18C140.284 12.152 140.522 12.124 140.746 12.096C140.998 12.068 141.25 12.026 141.502 11.97C142.286 11.886 143.056 11.802 143.812 11.718C144.596 11.606 145.352 11.564 146.08 11.592C146.92 11.62 147.704 11.718 148.432 11.886C149.188 12.054 149.874 12.362 150.49 12.81ZM205.636 17.22C204.964 17.5 204.18 17.668 203.284 17.724C202.416 17.752 201.506 17.766 200.554 17.766C199.714 17.766 198.846 17.794 197.95 17.85C197.054 17.878 196.186 17.99 195.346 18.186C195.542 18.69 195.64 19.18 195.64 19.656C195.64 20.104 195.612 20.538 195.556 20.958C195.5 21.434 195.472 21.882 195.472 22.302C195.5 22.722 195.682 23.114 196.018 23.478C196.466 23.982 197.04 24.472 197.74 24.948C198.468 25.424 199.112 25.858 199.672 26.25C200.064 26.502 200.512 26.698 201.016 26.838C201.548 26.978 202.01 27.202 202.402 27.51C202.458 27.538 202.486 27.622 202.486 27.762C202.486 27.902 202.5 28 202.528 28.056C202.556 28.084 202.64 28.084 202.78 28.056C202.92 28.028 203.018 28.028 203.074 28.056C203.522 28.364 203.942 28.812 204.334 29.4C204.754 29.988 204.978 30.604 205.006 31.248C205.062 31.892 204.768 32.452 204.124 32.928C202.584 33.124 201.296 32.872 200.26 32.172C199.252 31.472 198.384 30.604 197.656 29.568C197.292 29.036 196.914 28.42 196.522 27.72C196.13 26.992 195.822 26.502 195.598 26.25C195.57 26.642 195.57 27.076 195.598 27.552C195.626 28 195.654 28.476 195.682 28.98C195.71 29.372 195.724 29.764 195.724 30.156C195.752 30.548 195.766 30.94 195.766 31.332C195.766 32.284 195.668 33.166 195.472 33.978C195.276 34.818 194.87 35.49 194.254 35.994C192.966 35.714 191.762 35.252 190.642 34.608C189.55 33.964 188.682 33.082 188.038 31.962C187.87 32.046 187.758 32.186 187.702 32.382C187.646 32.55 187.618 32.732 187.618 32.928C186.834 32.844 186.148 32.606 185.56 32.214C184.972 31.794 184.482 31.318 184.09 30.786C183.698 30.226 183.376 29.694 183.124 29.19C183.432 29.022 183.67 28.966 183.838 29.022C184.006 29.05 184.174 29.106 184.342 29.19C184.426 29.246 184.524 29.288 184.636 29.316C184.748 29.344 184.888 29.344 185.056 29.316C185.532 29.204 185.938 28.91 186.274 28.434C186.638 27.93 186.96 27.44 187.24 26.964C187.548 26.488 187.856 26.25 188.164 26.25C188.388 26.222 188.626 26.334 188.878 26.586C189.158 26.81 189.41 27.02 189.634 27.216C189.858 27.44 189.998 27.58 190.054 27.636C189.858 28.28 189.564 28.924 189.172 29.568C188.78 30.212 188.486 30.73 188.29 31.122C188.71 31.402 189.298 31.584 190.054 31.668C190.838 31.752 191.426 31.808 191.818 31.836C192.294 30.8 192.532 29.638 192.532 28.35C192.56 27.034 192.532 25.732 192.448 24.444C192.448 24.08 192.434 23.73 192.406 23.394C192.378 23.058 192.364 22.722 192.364 22.386C192.336 21.714 192.294 21.014 192.238 20.286C192.21 19.558 192.07 18.956 191.818 18.48C190.95 18.536 190.124 18.634 189.34 18.774C188.556 18.886 187.842 18.942 187.198 18.942C186.47 18.942 185.798 18.816 185.182 18.564C184.566 18.284 184.02 17.738 183.544 16.926C185.28 16.534 187.184 16.254 189.256 16.086C191.356 15.918 193.47 15.778 195.598 15.666C195.598 15.61 195.612 15.498 195.64 15.33C195.696 14.994 195.752 14.588 195.808 14.112C195.892 13.608 195.92 13.118 195.892 12.642C195.36 12.642 194.828 12.698 194.296 12.81C193.764 12.894 193.26 12.992 192.784 13.104C192.308 13.188 191.846 13.272 191.398 13.356C190.978 13.44 190.572 13.468 190.18 13.44C189.424 13.384 188.738 13.146 188.122 12.726C187.506 12.278 187.016 11.844 186.652 11.424C186.288 11.004 186.106 10.794 186.106 10.794C186.666 10.962 187.296 11.018 187.996 10.962C188.696 10.878 189.424 10.78 190.18 10.668C190.292 10.64 190.418 10.626 190.558 10.626C190.698 10.598 190.838 10.57 190.978 10.542C191.874 10.402 192.728 10.318 193.54 10.29C194.38 10.234 195.108 10.36 195.724 10.668C195.836 9.96797 195.892 9.19797 195.892 8.35798C195.92 7.48997 195.864 6.77597 195.724 6.21598C194.352 6.41197 192.924 6.63597 191.44 6.88797C189.984 7.13997 188.794 7.47597 187.87 7.89597C187.17 7.58797 186.638 7.11197 186.274 6.46797C185.938 5.82397 185.532 5.23597 185.056 4.70397C185.196 4.56397 185.308 4.42397 185.392 4.28398C185.504 4.14398 185.616 4.00398 185.728 3.86398C186.036 3.91997 186.316 4.01797 186.568 4.15797C186.848 4.26997 187.1 4.39597 187.324 4.53597C189.06 4.47997 190.67 4.40998 192.154 4.32597C193.638 4.21397 194.926 3.77997 196.018 3.02397C197.502 3.30397 198.79 3.79397 199.882 4.49397C200.974 5.16597 201.856 6.06197 202.528 7.18198C202.136 7.43398 201.786 7.58798 201.478 7.64397C201.17 7.67197 200.834 7.65797 200.47 7.60197C200.134 7.79797 199.868 8.03597 199.672 8.31597C199.672 10.976 199.35 13.342 198.706 15.414C198.93 15.386 199.196 15.316 199.504 15.204C199.84 15.064 200.162 14.994 200.47 14.994C201.394 15.022 202.346 15.274 203.326 15.75C204.306 16.198 205.076 16.688 205.636 17.22ZM185.98 7.47597C186.12 7.92397 186.204 8.35798 186.232 8.77797C186.26 9.16997 186.092 9.51997 185.728 9.82797C185.168 9.54797 184.51 9.23997 183.754 8.90398C182.998 8.53998 182.298 8.16198 181.654 7.76998C181.458 7.40597 181.262 7.02797 181.066 6.63597C180.87 6.24397 180.618 5.92197 180.31 5.66997C179.89 5.94997 179.386 6.39797 178.798 7.01397C178.21 7.60197 177.608 8.24597 176.992 8.94598C176.404 9.64597 175.872 10.29 175.396 10.878C174.948 11.438 174.64 11.83 174.472 12.054C175.312 11.97 176.194 11.83 177.118 11.634C178.07 11.438 178.91 11.158 179.638 10.794C180.422 10.878 181.066 11.102 181.57 11.466C182.102 11.802 182.676 12.096 183.292 12.348C183.348 12.404 183.348 12.474 183.292 12.558C183.208 12.698 183.208 12.81 183.292 12.894C182.704 13.174 182.088 13.398 181.444 13.566C180.828 13.734 180.226 13.888 179.638 14.028C179.89 14.532 180.1 15.05 180.268 15.582C180.436 16.114 180.366 16.618 180.058 17.094C180.954 17.29 181.78 17.542 182.536 17.85C183.32 18.13 183.978 18.564 184.51 19.152C184.034 19.46 183.502 19.656 182.914 19.74C182.326 19.796 181.766 19.838 181.234 19.866C180.73 19.866 180.324 19.95 180.016 20.118C179.904 21.994 179.82 23.688 179.764 25.2C179.708 26.684 179.61 28.154 179.47 29.61C180.282 29.33 181.122 29.4 181.99 29.82C182.858 30.24 183.6 30.73 184.216 31.29C183.208 31.654 182.116 31.948 180.94 32.172C179.792 32.368 178.658 32.62 177.538 32.928C176.446 33.236 175.466 33.712 174.598 34.356C174.486 34.44 174.374 34.524 174.262 34.608C174.178 34.692 174.094 34.776 174.01 34.86C173.674 35.14 173.366 35.336 173.086 35.448C172.806 35.56 172.414 35.42 171.91 35.028C171.434 34.636 170.972 34.09 170.524 33.39C170.104 32.69 169.614 32.172 169.054 31.836C169.138 31.612 169.25 31.5 169.39 31.5C169.558 31.5 169.726 31.486 169.894 31.458C170.09 31.402 170.216 31.248 170.272 30.996C170.692 31.192 171.084 31.332 171.448 31.416C171.812 31.472 172.176 31.5 172.54 31.5C173.072 31.472 173.646 31.388 174.262 31.248C174.878 31.08 175.466 30.898 176.026 30.702C176.614 30.506 177.09 30.366 177.454 30.282C177.482 29.19 177.468 28.056 177.412 26.88C177.356 25.676 177.286 24.514 177.202 23.394C177.174 22.89 177.146 22.4 177.118 21.924C177.09 21.448 177.062 20.986 177.034 20.538C176.474 20.622 175.9 20.692 175.312 20.748C174.752 20.776 174.332 20.986 174.052 21.378C172.26 21.042 170.958 20.258 170.146 19.026C171.21 18.718 172.33 18.452 173.506 18.228C174.71 17.976 175.844 17.822 176.908 17.766C176.964 17.206 176.964 16.688 176.908 16.212C176.852 15.736 176.768 15.33 176.656 14.994C176.348 14.77 175.998 14.63 175.606 14.574C175.214 14.518 174.822 14.434 174.43 14.322C174.038 14.21 173.688 13.972 173.38 13.608C173.128 13.888 172.736 14.364 172.204 15.036C171.7 15.708 171.056 16.394 170.272 17.094C169.516 17.766 168.634 18.298 167.626 18.69C167.57 18.55 167.486 18.466 167.374 18.438C167.29 18.41 167.192 18.396 167.08 18.396C166.968 18.396 166.884 18.396 166.828 18.396C166.632 18.284 166.45 18.172 166.282 18.06C166.142 17.948 165.918 17.836 165.61 17.724C166.338 16.912 167.164 16.156 168.088 15.456C169.04 14.728 169.852 13.832 170.524 12.768C171 11.956 171.574 11.144 172.246 10.332C172.918 9.51998 173.52 8.70797 174.052 7.89597C174.444 7.33597 174.794 6.80397 175.102 6.29997C175.438 5.79597 175.774 5.26397 176.11 4.70397C176.306 4.39597 176.348 4.10197 176.236 3.82197C176.152 3.54197 176.026 3.26197 175.858 2.98197C175.718 2.70197 175.578 2.40797 175.438 2.09997C175.326 1.79197 175.326 1.44197 175.438 1.04997C175.886 1.04997 176.152 1.18997 176.236 1.46997C176.628 1.10597 177.048 0.951974 177.496 1.00797C177.86 1.03597 178.224 1.16197 178.588 1.38597C178.952 1.58197 179.344 1.74997 179.764 1.88997C179.792 1.97397 179.778 2.05797 179.722 2.14198C179.666 2.19797 179.638 2.25397 179.638 2.30997C180.142 2.30997 180.464 2.47797 180.604 2.81397C180.772 3.14997 180.982 3.44397 181.234 3.69598C182.298 4.05997 183.18 4.59197 183.88 5.29197C184.608 5.99197 185.308 6.71997 185.98 7.47597ZM203.452 19.74C203.424 20.356 203.214 20.846 202.822 21.21C202.458 21.546 201.996 21.826 201.436 22.05C200.848 22.302 200.246 22.554 199.63 22.806C199.014 23.03 198.538 23.394 198.202 23.898L197.908 23.184C197.852 23.212 197.796 23.282 197.74 23.394C197.684 23.478 197.628 23.548 197.572 23.604C197.516 23.632 197.404 23.632 197.236 23.604C197.208 23.548 197.194 23.45 197.194 23.31C197.194 23.17 197.18 23.058 197.152 22.974C197.124 22.862 197.012 22.792 196.816 22.764C196.872 22.232 197.04 21.826 197.32 21.546C197.628 21.238 197.936 20.958 198.244 20.706C198.58 20.454 198.832 20.132 199 19.74C198.972 19.516 198.86 19.376 198.664 19.32C198.468 19.264 198.356 19.124 198.328 18.9C199.168 18.228 200.092 18.004 201.1 18.228C202.136 18.452 202.92 18.956 203.452 19.74ZM175.564 29.61C175.368 29.526 175.186 29.498 175.018 29.526C174.878 29.526 174.738 29.554 174.598 29.61C174.458 29.638 174.318 29.666 174.178 29.694C174.066 29.694 173.94 29.666 173.8 29.61C173.184 29.218 172.736 28.588 172.456 27.72C172.204 26.824 172.022 25.858 171.91 24.822C171.826 23.786 171.686 22.876 171.49 22.092H171.784C172.484 22.456 173.156 22.918 173.8 23.478C174.444 24.01 174.92 24.696 175.228 25.536C175.564 26.348 175.578 27.384 175.27 28.644C175.27 28.784 175.312 28.924 175.396 29.064C175.452 29.148 175.494 29.232 175.522 29.316C175.578 29.372 175.592 29.47 175.564 29.61ZM185.434 23.604C185.098 24.22 184.706 24.906 184.258 25.662C183.81 26.39 183.432 26.964 183.124 27.384C183.04 27.384 182.844 27.426 182.536 27.51C182.284 27.594 182.018 27.664 181.738 27.72C181.458 27.776 181.206 27.748 180.982 27.636C181.01 27.468 181.052 27.3 181.108 27.132C181.164 26.964 181.206 26.796 181.234 26.628C181.486 25.732 181.696 24.78 181.864 23.772C182.06 22.764 182.032 21.784 181.78 20.832C182.116 20.552 182.452 20.468 182.788 20.58C183.152 20.692 183.502 20.902 183.838 21.21C184.174 21.546 184.482 21.938 184.762 22.386C185.042 22.834 185.266 23.24 185.434 23.604ZM190.6 24.612C190.012 24.836 189.48 24.906 189.004 24.822C188.528 24.71 188.094 24.514 187.702 24.234C187.17 23.814 186.694 23.268 186.274 22.596C185.882 21.896 185.518 21.266 185.182 20.706C185.574 20.454 185.966 20.342 186.358 20.37C186.75 20.37 187.142 20.454 187.534 20.622C188.066 20.846 188.57 21.154 189.046 21.546C189.55 21.938 190.026 22.26 190.474 22.512C190.362 22.736 190.32 22.96 190.348 23.184C190.376 23.408 190.418 23.618 190.474 23.814C190.502 23.954 190.53 24.094 190.558 24.234C190.586 24.346 190.6 24.472 190.6 24.612Z" fill="white"/>
</svg>
