<svg width="146" height="76" viewBox="0 0 146 76" fill="none" xmlns="http://www.w3.org/2000/svg">
<mask id="path-1-inside-1_92_12621" fill="white">
<path d="M26 26C26 21.5817 29.5817 18 34 18H112C116.418 18 120 21.5817 120 26V52C120 56.4183 116.418 60 112 60H34C29.5817 60 26 56.4183 26 52V26Z"/>
</mask>
<path d="M26 26C26 21.5817 29.5817 18 34 18H112C116.418 18 120 21.5817 120 26V52C120 56.4183 116.418 60 112 60H34C29.5817 60 26 56.4183 26 52V26Z" fill="#2C2C2C"/>
<path d="M34 19H112V17H34V19ZM119 26V52H121V26H119ZM112 59H34V61H112V59ZM27 52V26H25V52H27ZM34 59C30.134 59 27 55.866 27 52H25C25 56.9706 29.0294 61 34 61V59ZM119 52C119 55.866 115.866 59 112 59V61C116.971 61 121 56.9706 121 52H119ZM112 19C115.866 19 119 22.134 119 26H121C121 21.0294 116.971 17 112 17V19ZM34 17C29.0294 17 25 21.0294 25 26H27C27 22.134 30.134 19 34 19V17Z" fill="#2C2C2C" mask="url(#path-1-inside-1_92_12621)"/>
<path d="M50.2 36.6C50.1467 36.6533 50.1067 36.6533 50.08 36.6C50.04 36.5333 49.9933 36.5333 49.94 36.6C49.8867 36.64 49.8533 36.6733 49.84 36.7C49.84 36.7267 49.84 36.76 49.84 36.8C49.84 36.8667 49.8267 36.9267 49.8 36.98C49.5867 37.0867 49.3 37.2 48.94 37.32C48.58 37.44 48.2867 37.6067 48.06 37.82C47.54 37.8867 46.9867 37.92 46.4 37.92C45.8267 37.92 45.2 37.9333 44.52 37.96C44.3067 38.6 44.14 39.2933 44.02 40.04C43.9 40.7867 43.84 41.5467 43.84 42.32C43.8533 43.08 43.9333 43.8067 44.08 44.5C44.24 45.1933 44.4733 45.8067 44.78 46.34C44.5 46.3533 44.2733 46.3267 44.1 46.26C43.94 46.2067 43.7733 46.14 43.6 46.06C43.5333 46.0333 43.46 46.0067 43.38 45.98C43.3133 45.94 43.24 45.9067 43.16 45.88C42.72 44.8533 42.4933 43.8333 42.48 42.82C42.4667 41.7933 42.4867 40.7667 42.54 39.74C42.5667 39.42 42.5867 39.1 42.6 38.78C42.6267 38.46 42.64 38.14 42.64 37.82C41.7467 37.5933 40.9667 37.26 40.3 36.82C39.6467 36.3667 38.9867 35.82 38.32 35.18C37.9467 34.82 37.5667 34.4 37.18 33.92C36.7933 33.44 36.4667 32.9133 36.2 32.34C35.9467 31.7667 35.82 31.16 35.82 30.52V30.5C35.8733 30.58 35.92 30.66 35.96 30.74C36.0133 30.8067 36.0667 30.88 36.12 30.96C36.52 31.5467 36.9467 32.1467 37.4 32.76C37.8533 33.3733 38.36 33.9333 38.92 34.44C39.48 34.9467 40.12 35.3533 40.84 35.66C41.56 35.9533 42.38 36.0933 43.3 36.08C43.5133 35.3333 43.86 34.6667 44.34 34.08C44.8333 33.48 45.4333 33.0533 46.14 32.8C46.3267 32.7333 46.48 32.7267 46.6 32.78C46.7333 32.82 46.86 32.88 46.98 32.96C47.0333 32.9867 47.0867 33.0133 47.14 33.04C47.1933 33.0667 47.2467 33.0933 47.3 33.12C47.46 33.4667 47.68 33.7533 47.96 33.98C48.2533 34.1933 48.58 34.3733 48.94 34.52C49.3 34.6667 49.6533 34.82 50 34.98C49.92 35.1267 49.8933 35.28 49.92 35.44C49.96 35.5867 50.0067 35.74 50.06 35.9C50.1 36.0067 50.1333 36.12 50.16 36.24C50.2 36.36 50.2133 36.48 50.2 36.6ZM39.74 40.22C39.8333 40.5 39.8333 40.7467 39.74 40.96C39.6467 41.1733 39.5267 41.3867 39.38 41.6C39.3267 41.68 39.2733 41.76 39.22 41.84C39.18 41.92 39.14 42 39.1 42.08C38.9267 42.4533 38.7667 42.86 38.62 43.3C38.4867 43.7267 38.3 44.1133 38.06 44.46C37.9933 44.5667 37.8867 44.6733 37.74 44.78C37.5933 44.8733 37.4667 44.9867 37.36 45.12C37.2267 45.28 37.1267 45.4333 37.06 45.58C37.0067 45.7133 36.9333 45.8133 36.84 45.88C36.6667 45.9867 36.46 46.0533 36.22 46.08C35.9933 46.1067 35.7667 46.12 35.54 46.12C35.4733 46.12 35.4067 46.12 35.34 46.12C35.2733 46.1333 35.2133 46.14 35.16 46.14C35.1733 45.74 35.2667 45.3733 35.44 45.04C35.6133 44.6933 35.82 44.36 36.06 44.04C36.3133 43.72 36.5533 43.3933 36.78 43.06C37.1 42.58 37.5067 42.0667 38 41.52C38.4933 40.96 38.9667 40.48 39.42 40.08C39.4467 40.08 39.48 40.1067 39.52 40.16C39.5467 40.1867 39.5733 40.2067 39.6 40.22C39.6267 40.2333 39.6733 40.2333 39.74 40.22ZM50.78 44.8C50.7 44.9067 50.62 45.0267 50.54 45.16C50.4733 45.28 50.42 45.4133 50.38 45.56C49.8333 45.2667 49.3867 44.8733 49.04 44.38C48.7067 43.8733 48.4067 43.34 48.14 42.78C47.8733 42.2067 47.5667 41.6733 47.22 41.18C47.2067 41.14 47.22 41.1 47.26 41.06C47.2867 41.0333 47.3 41.0067 47.3 40.98C47.8733 41.1267 48.4067 41.38 48.9 41.74C49.3933 42.1 49.8067 42.54 50.14 43.06C50.4867 43.58 50.7 44.16 50.78 44.8ZM48.2 35.44C48.0267 35.24 47.86 35.02 47.7 34.78C47.54 34.54 47.34 34.3933 47.1 34.34C46.9 34.2867 46.7267 34.3133 46.58 34.42C46.4333 34.5133 46.2867 34.6267 46.14 34.76C46.06 34.84 45.9733 34.92 45.88 35C45.8 35.0667 45.7133 35.1267 45.62 35.18C45.62 35.4067 45.5533 35.5733 45.42 35.68C45.2867 35.7867 45.2 35.94 45.16 36.14C45.6933 36.1667 46.24 36.1133 46.8 35.98C47.36 35.8467 47.8267 35.6667 48.2 35.44ZM71.54 39.46C71.4733 39.4867 71.4067 39.52 71.34 39.56C71.2867 39.5867 71.2333 39.6133 71.18 39.64C70.9533 39.76 70.7133 39.8733 70.46 39.98C70.2067 40.0733 69.9333 40.1067 69.64 40.08C68.8533 39.9867 67.9267 39.9 66.86 39.82C65.8067 39.7267 64.7 39.6733 63.54 39.66C62.38 39.6333 61.24 39.6867 60.12 39.82C59.8933 39.8467 59.66 39.88 59.42 39.92C59.1933 39.96 58.9667 40 58.74 40.04C58.0333 40.16 57.3267 40.2533 56.62 40.32C55.9267 40.3733 55.2133 40.2667 54.48 40C54.88 39.6533 55.3333 39.3733 55.84 39.16C56.36 38.9333 56.9067 38.7533 57.48 38.62C58.48 38.38 59.4733 38.24 60.46 38.2C61.46 38.1467 62.5 38.0733 63.58 37.98C63.9933 37.94 64.4733 37.9267 65.02 37.94C65.5667 37.9533 66.1333 37.9933 66.72 38.06C67.32 38.1133 67.8933 38.1867 68.44 38.28C69 38.3733 69.5 38.48 69.94 38.6C70.1533 38.6533 70.3667 38.7067 70.58 38.76C70.8067 38.8 71.0067 38.8733 71.18 38.98C71.3667 39.0733 71.4867 39.2333 71.54 39.46ZM87.66 41.94C87.6467 41.9667 87.62 42.0133 87.58 42.08C87.5267 42.1333 87.48 42.1933 87.44 42.26C87.4133 42.3267 87.4067 42.4133 87.42 42.52C87.0733 42.8 86.64 43.0733 86.12 43.34C85.6133 43.6067 85.0733 43.8333 84.5 44.02C83.9267 44.2067 83.3667 44.32 82.82 44.36C82.7933 44.36 82.7733 44.38 82.76 44.42C82.76 44.46 82.76 44.4933 82.76 44.52C82.64 44.52 82.4933 44.5467 82.32 44.6C82.1467 44.64 81.9667 44.6867 81.78 44.74C81.5933 44.7933 81.42 44.84 81.26 44.88C81.1 44.92 80.9667 44.94 80.86 44.94C80.8467 44.94 80.8333 44.92 80.82 44.88C80.8067 44.84 80.8 44.82 80.8 44.82C80.7467 44.8333 80.7 44.8667 80.66 44.92C80.62 44.96 80.5667 44.9867 80.5 45C80.4467 45.0133 80.38 45.02 80.3 45.02C80.22 45.02 80.14 45.02 80.06 45.02C79.9667 45.02 79.8733 45.02 79.78 45.02C79.6867 45.02 79.6 45.0267 79.52 45.04C79.1733 45.1067 78.7867 45.1667 78.36 45.22C77.9467 45.26 77.5333 45.2667 77.12 45.24C76.72 45.2133 76.36 45.12 76.04 44.96C75.7333 44.8 75.5133 44.54 75.38 44.18C75.38 44.0867 75.38 44.0133 75.38 43.96C75.3933 43.8933 75.4 43.84 75.4 43.8C75.4133 43.7333 75.42 43.6733 75.42 43.62C75.4333 43.5667 75.42 43.4867 75.38 43.38C75.54 43.22 75.68 43.04 75.8 42.84C75.92 42.64 75.9667 42.3933 75.94 42.1C75.98 42.1 76.0267 42.0867 76.08 42.06C76.1333 42.0333 76.1867 42.0267 76.24 42.04C76.4267 41.44 76.7067 40.8933 77.08 40.4C77.4533 39.9067 77.7467 39.42 77.96 38.94C78.16 38.8467 78.3 38.7 78.38 38.5C78.4733 38.3 78.6267 38.16 78.84 38.08C79.0533 37.6 79.3267 37.1733 79.66 36.8C80.0067 36.4133 80.3667 36.04 80.74 35.68C81.1133 35.32 81.44 34.9467 81.72 34.56C81.7733 34.56 81.8133 34.5533 81.84 34.54C81.8667 34.5133 81.8933 34.4867 81.92 34.46C81.96 34.4333 82 34.4133 82.04 34.4C82.0933 34.3733 82.16 34.3667 82.24 34.38C82.24 34.34 82.2533 34.2933 82.28 34.24C82.3067 34.1733 82.3133 34.1067 82.3 34.04C82.7133 33.7467 83.1 33.44 83.46 33.12C83.8333 32.7867 84.22 32.4733 84.62 32.18C85.02 31.8733 85.4733 31.6267 85.98 31.44C85.9533 31.8133 85.8267 32.0933 85.6 32.28C85.3867 32.4533 85.1867 32.6533 85 32.88C84.7333 33.28 84.4333 33.6667 84.1 34.04C83.78 34.4 83.4467 34.7467 83.1 35.08C82.82 35.6533 82.46 36.18 82.02 36.66C81.58 37.1267 81.1533 37.58 80.74 38.02C80.34 38.46 80.0333 38.92 79.82 39.4C79.5267 39.6933 79.24 40.0333 78.96 40.42C78.68 40.8067 78.4467 41.18 78.26 41.54C77.9667 41.86 77.7067 42.2133 77.48 42.6C77.2533 42.9733 77.0667 43.3867 76.92 43.84C77.4933 43.8933 78.0733 43.8667 78.66 43.76C79.26 43.6533 79.8533 43.5333 80.44 43.4C80.72 43.3333 81 43.2667 81.28 43.2C81.56 43.1333 81.84 43.08 82.12 43.04C82.1867 43.04 82.2333 43.02 82.26 42.98C82.2867 42.94 82.3133 42.9 82.34 42.86C82.4467 42.9133 82.5467 42.9267 82.64 42.9C82.7467 42.8733 82.84 42.84 82.92 42.8C82.96 42.84 82.92 42.88 82.8 42.92C82.7467 42.9467 82.6933 42.9733 82.64 43C82.6 43.0133 82.58 43.04 82.58 43.08C83.3667 42.9333 84.1333 42.6933 84.88 42.36C85.64 42.0267 86.3733 41.6733 87.08 41.3C86.9733 41.3 86.9333 41.28 86.96 41.24C86.9867 41.1867 87.0467 41.1267 87.14 41.06C87.2333 40.9933 87.3067 40.94 87.36 40.9C87.2267 41.1 87.2067 41.3 87.3 41.5C87.4067 41.6867 87.5267 41.8333 87.66 41.94ZM90.08 44.48C89.8267 44.4533 89.6067 44.3867 89.42 44.28C89.2467 44.1733 89.06 44.0867 88.86 44.02C88.7667 43.8333 88.6733 43.64 88.58 43.44C88.5 43.2267 88.4 43.0333 88.28 42.86C88.2667 42.38 88.1667 41.9467 87.98 41.56C87.8067 41.16 87.6067 40.7733 87.38 40.4C87.1533 40.0267 86.9733 39.6333 86.84 39.22C87.56 39.4333 88.18 39.8133 88.7 40.36C89.2333 40.9067 89.6267 41.54 89.88 42.26C90.1333 42.98 90.2 43.72 90.08 44.48ZM87.14 40.72C87.1667 40.84 87.0933 40.9667 86.92 41.1C86.76 41.2333 86.5667 41.3467 86.34 41.44C86.1133 41.5333 85.92 41.58 85.76 41.58C86 41.4333 86.2467 41.3067 86.5 41.2C86.7533 41.08 86.9667 40.92 87.14 40.72ZM85.58 41.7C85.5533 41.7533 85.5067 41.8 85.44 41.84C85.3733 41.88 85.3133 41.9133 85.26 41.94C85.18 41.98 85.1533 42 85.18 42C85.1667 42.0667 85.1267 42.08 85.06 42.04C85.0067 42 84.9667 41.9867 84.94 42C85.02 41.9333 85.12 41.88 85.24 41.84C85.3733 41.8 85.4867 41.7533 85.58 41.7ZM111.36 42.1C111.227 42.3533 111.167 42.6 111.18 42.84C111.193 43.0667 111.147 43.3133 111.04 43.58H111.08L111.1 43.52C111.1 43.56 111.093 43.58 111.08 43.58C110.893 43.9933 110.613 44.4067 110.24 44.82C109.867 45.2333 109.467 45.5733 109.04 45.84C109.027 45.5333 109.08 45.3 109.2 45.14C109.32 44.9667 109.46 44.8133 109.62 44.68V44.66C109.713 44.3 109.787 43.9267 109.84 43.54C109.907 43.14 109.873 42.7867 109.74 42.48C109.713 42.4133 109.74 42.3667 109.82 42.34C109.887 42.3267 109.907 42.2867 109.88 42.22C109.613 41.9 109.4 41.6067 109.24 41.34C109.08 41.06 108.927 40.7533 108.78 40.42C108.767 40.42 108.747 40.42 108.72 40.42C108.64 40.42 108.593 40.44 108.58 40.48C108.593 40.3733 108.547 40.2667 108.44 40.16C108.333 40.04 108.213 39.9267 108.08 39.82C108.04 39.78 107.993 39.74 107.94 39.7C107.9 39.66 107.86 39.62 107.82 39.58C107.7 39.46 107.527 39.3067 107.3 39.12C107.087 38.92 106.847 38.7733 106.58 38.68C106.527 38.6 106.507 38.4933 106.52 38.36H106.2C105.747 38.04 105.247 37.7333 104.7 37.44C104.153 37.1333 103.58 36.9067 102.98 36.76C102.393 36.6133 101.787 36.6267 101.16 36.8C100.747 36.92 100.287 37.14 99.78 37.46C99.2867 37.78 98.82 38.1467 98.38 38.56C97.94 38.96 97.58 39.34 97.3 39.7C97.1667 39.8867 97.04 40.12 96.92 40.4C96.8 40.6667 96.6533 40.92 96.48 41.16C96.32 41.4 96.1 41.56 95.82 41.64C95.6333 41.4933 95.52 41.3067 95.48 41.08C95.4533 40.8533 95.4333 40.62 95.42 40.38C95.4067 40.22 95.3933 40.0667 95.38 39.92C95.3667 39.76 95.34 39.6067 95.3 39.46C95.5 39.1133 95.6867 38.7533 95.86 38.38C96.0333 38.0067 96.1867 37.6133 96.32 37.2C96.3733 37.32 96.44 37.4067 96.52 37.46C96.6 37.5 96.6467 37.6267 96.66 37.84C97.0867 37.5067 97.54 37.16 98.02 36.8C98.5133 36.4267 99.0533 36.1067 99.64 35.84C100.24 35.56 100.9 35.3867 101.62 35.32C102.5 35.24 103.333 35.3333 104.12 35.6C104.92 35.8533 105.633 36.1933 106.26 36.62C107.687 37.2733 108.847 38.22 109.74 39.46C109.793 39.5133 109.853 39.56 109.92 39.6C110 39.64 110.073 39.6733 110.14 39.7C110.353 40.1533 110.58 40.5467 110.82 40.88C111.06 41.2133 111.24 41.62 111.36 42.1Z" fill="white"/>
</svg>
